# xmcd
# 
# Track frame offsets:
#     150
#     19472
#     30268
#     57800
#     72301
#     91189
#     108428
#     123925
#     135275
#     149453
#     161781
# 
# Disc length: 2360
# 
# Revision: 10
# Processed by: cddbd v1.5.2PL0 Copyright (c) Steve Scherf et al.
# Submitted via: fre:ac v1.0.31
# 
DISCID=8f09360b
DTITLE=Billy Gibbons - Perfectamundo
DYEAR=2015
DGENRE=Blues
TTITLE0=Got Love If You Want It
TTITLE1=Treat Her Right
TTITLE2=You're What's Happenin', Baby
TTITLE3=Sal Y Pimiento
TTITLE4=Pickin' Up Chicks On Dowling Street
TTITLE5=Hombre Sin Nombre
TTITLE6=Quiero Mas Dinero
TTITLE7=Baby Please Don't Go
TTITLE8=Piedras Negras
TTITLE9=Perfectamundo
TTITLE10=Q-Vo
EXTD=YEAR: 2015
EXTT0=
EXTT1=
EXTT2=
EXTT3=
EXTT4=
EXTT5=
EXTT6=
EXTT7=
EXTT8=
EXTT9=
EXTT10=
PLAYORDER=
